<mxfile host="app.diagrams.net" modified="2021-12-16T02:03:35.249Z" agent="5.0 (Macintosh; Intel Mac OS X 10_15_7) AppleWebKit/537.36 (KHTML, like Gecko) Chrome/96.0.4664.110 Safari/537.36" etag="UDemXpgkAbfdBCbu6VIU" version="15.9.5" type="github">
  <diagram id="R2lEEEUBdFMjLlhIrx00" name="Page-1">
    <mxGraphModel dx="635" dy="801" grid="1" gridSize="10" guides="1" tooltips="1" connect="1" arrows="1" fold="1" page="1" pageScale="1" pageWidth="850" pageHeight="1100" math="0" shadow="0" extFonts="Permanent Marker^https://fonts.googleapis.com/css?family=Permanent+Marker">
      <root>
        <mxCell id="0" />
        <mxCell id="1" parent="0" />
        <mxCell id="C-vyLk0tnHw3VtMMgP7b-1" value="" style="edgeStyle=entityRelationEdgeStyle;endArrow=ERone;startArrow=ERone;endFill=0;startFill=0;fontFamily=Permanent Marker;fontSource=https%3A%2F%2Ffonts.googleapis.com%2Fcss%3Ffamily%3DPermanent%2BMarker;exitX=1;exitY=0.5;exitDx=0;exitDy=0;entryX=0;entryY=0.5;entryDx=0;entryDy=0;strokeWidth=2;" parent="1" source="k0sqkgPHbtRCCj4TaCLR-20" target="k0sqkgPHbtRCCj4TaCLR-52" edge="1">
          <mxGeometry width="100" height="100" relative="1" as="geometry">
            <mxPoint x="365" y="180" as="sourcePoint" />
            <mxPoint x="445" y="195" as="targetPoint" />
          </mxGeometry>
        </mxCell>
        <mxCell id="C-vyLk0tnHw3VtMMgP7b-12" value="" style="edgeStyle=entityRelationEdgeStyle;endArrow=ERzeroToMany;startArrow=ERone;endFill=1;startFill=0;fontFamily=Permanent Marker;fontSource=https%3A%2F%2Ffonts.googleapis.com%2Fcss%3Ffamily%3DPermanent%2BMarker;" parent="1" target="C-vyLk0tnHw3VtMMgP7b-17" edge="1">
          <mxGeometry width="100" height="100" relative="1" as="geometry">
            <mxPoint x="700" y="165" as="sourcePoint" />
            <mxPoint x="460" y="205" as="targetPoint" />
          </mxGeometry>
        </mxCell>
        <mxCell id="k0sqkgPHbtRCCj4TaCLR-10" value="Users" style="shape=table;startSize=30;container=1;collapsible=1;childLayout=tableLayout;fixedRows=1;rowLines=0;fontStyle=1;align=center;resizeLast=1;rounded=1;sketch=1;fontFamily=Permanent Marker;fontSource=https%3A%2F%2Ffonts.googleapis.com%2Fcss%3Ffamily%3DPermanent%2BMarker;" vertex="1" parent="1">
          <mxGeometry x="75" y="130" width="240" height="210" as="geometry" />
        </mxCell>
        <mxCell id="k0sqkgPHbtRCCj4TaCLR-11" value="" style="shape=partialRectangle;collapsible=0;dropTarget=0;pointerEvents=0;fillColor=none;top=0;left=0;bottom=1;right=0;points=[[0,0.5],[1,0.5]];portConstraint=eastwest;fontFamily=Permanent Marker;fontSource=https%3A%2F%2Ffonts.googleapis.com%2Fcss%3Ffamily%3DPermanent%2BMarker;" vertex="1" parent="k0sqkgPHbtRCCj4TaCLR-10">
          <mxGeometry y="30" width="240" height="30" as="geometry" />
        </mxCell>
        <mxCell id="k0sqkgPHbtRCCj4TaCLR-12" value="ID" style="shape=partialRectangle;connectable=0;fillColor=none;top=0;left=0;bottom=0;right=0;fontStyle=1;overflow=hidden;fontFamily=Permanent Marker;fontSource=https%3A%2F%2Ffonts.googleapis.com%2Fcss%3Ffamily%3DPermanent%2BMarker;" vertex="1" parent="k0sqkgPHbtRCCj4TaCLR-11">
          <mxGeometry width="100" height="30" as="geometry">
            <mxRectangle width="100" height="30" as="alternateBounds" />
          </mxGeometry>
        </mxCell>
        <mxCell id="k0sqkgPHbtRCCj4TaCLR-13" value="UniqueID" style="shape=partialRectangle;connectable=0;fillColor=none;top=0;left=0;bottom=0;right=0;align=left;spacingLeft=6;fontStyle=5;overflow=hidden;fontFamily=Permanent Marker;fontSource=https%3A%2F%2Ffonts.googleapis.com%2Fcss%3Ffamily%3DPermanent%2BMarker;" vertex="1" parent="k0sqkgPHbtRCCj4TaCLR-11">
          <mxGeometry x="100" width="140" height="30" as="geometry">
            <mxRectangle width="140" height="30" as="alternateBounds" />
          </mxGeometry>
        </mxCell>
        <mxCell id="k0sqkgPHbtRCCj4TaCLR-17" value="" style="shape=partialRectangle;collapsible=0;dropTarget=0;pointerEvents=0;fillColor=none;top=0;left=0;bottom=0;right=0;points=[[0,0.5],[1,0.5]];portConstraint=eastwest;fontFamily=Permanent Marker;fontSource=https%3A%2F%2Ffonts.googleapis.com%2Fcss%3Ffamily%3DPermanent%2BMarker;" vertex="1" parent="k0sqkgPHbtRCCj4TaCLR-10">
          <mxGeometry y="60" width="240" height="30" as="geometry" />
        </mxCell>
        <mxCell id="k0sqkgPHbtRCCj4TaCLR-18" value="username" style="shape=partialRectangle;connectable=0;fillColor=none;top=0;left=0;bottom=0;right=0;editable=1;overflow=hidden;fontFamily=Permanent Marker;fontSource=https%3A%2F%2Ffonts.googleapis.com%2Fcss%3Ffamily%3DPermanent%2BMarker;" vertex="1" parent="k0sqkgPHbtRCCj4TaCLR-17">
          <mxGeometry width="100" height="30" as="geometry">
            <mxRectangle width="100" height="30" as="alternateBounds" />
          </mxGeometry>
        </mxCell>
        <mxCell id="k0sqkgPHbtRCCj4TaCLR-19" value="string" style="shape=partialRectangle;connectable=0;fillColor=none;top=0;left=0;bottom=0;right=0;align=left;spacingLeft=6;overflow=hidden;fontFamily=Permanent Marker;fontSource=https%3A%2F%2Ffonts.googleapis.com%2Fcss%3Ffamily%3DPermanent%2BMarker;" vertex="1" parent="k0sqkgPHbtRCCj4TaCLR-17">
          <mxGeometry x="100" width="140" height="30" as="geometry">
            <mxRectangle width="140" height="30" as="alternateBounds" />
          </mxGeometry>
        </mxCell>
        <mxCell id="k0sqkgPHbtRCCj4TaCLR-20" value="" style="shape=partialRectangle;collapsible=0;dropTarget=0;pointerEvents=0;fillColor=none;top=0;left=0;bottom=0;right=0;points=[[0,0.5],[1,0.5]];portConstraint=eastwest;fontFamily=Permanent Marker;fontSource=https%3A%2F%2Ffonts.googleapis.com%2Fcss%3Ffamily%3DPermanent%2BMarker;" vertex="1" parent="k0sqkgPHbtRCCj4TaCLR-10">
          <mxGeometry y="90" width="240" height="30" as="geometry" />
        </mxCell>
        <mxCell id="k0sqkgPHbtRCCj4TaCLR-21" value="password" style="shape=partialRectangle;connectable=0;fillColor=none;top=0;left=0;bottom=0;right=0;editable=1;overflow=hidden;fontFamily=Permanent Marker;fontSource=https%3A%2F%2Ffonts.googleapis.com%2Fcss%3Ffamily%3DPermanent%2BMarker;" vertex="1" parent="k0sqkgPHbtRCCj4TaCLR-20">
          <mxGeometry width="100" height="30" as="geometry">
            <mxRectangle width="100" height="30" as="alternateBounds" />
          </mxGeometry>
        </mxCell>
        <mxCell id="k0sqkgPHbtRCCj4TaCLR-22" value="string" style="shape=partialRectangle;connectable=0;fillColor=none;top=0;left=0;bottom=0;right=0;align=left;spacingLeft=6;overflow=hidden;fontFamily=Permanent Marker;fontSource=https%3A%2F%2Ffonts.googleapis.com%2Fcss%3Ffamily%3DPermanent%2BMarker;" vertex="1" parent="k0sqkgPHbtRCCj4TaCLR-20">
          <mxGeometry x="100" width="140" height="30" as="geometry">
            <mxRectangle width="140" height="30" as="alternateBounds" />
          </mxGeometry>
        </mxCell>
        <mxCell id="k0sqkgPHbtRCCj4TaCLR-14" value="" style="shape=partialRectangle;collapsible=0;dropTarget=0;pointerEvents=0;fillColor=none;top=0;left=0;bottom=0;right=0;points=[[0,0.5],[1,0.5]];portConstraint=eastwest;fontFamily=Permanent Marker;fontSource=https%3A%2F%2Ffonts.googleapis.com%2Fcss%3Ffamily%3DPermanent%2BMarker;" vertex="1" parent="k0sqkgPHbtRCCj4TaCLR-10">
          <mxGeometry y="120" width="240" height="30" as="geometry" />
        </mxCell>
        <mxCell id="k0sqkgPHbtRCCj4TaCLR-15" value="contributions" style="shape=partialRectangle;connectable=0;fillColor=none;top=0;left=0;bottom=0;right=0;editable=1;overflow=hidden;fontFamily=Permanent Marker;fontSource=https%3A%2F%2Ffonts.googleapis.com%2Fcss%3Ffamily%3DPermanent%2BMarker;" vertex="1" parent="k0sqkgPHbtRCCj4TaCLR-14">
          <mxGeometry width="100" height="30" as="geometry">
            <mxRectangle width="100" height="30" as="alternateBounds" />
          </mxGeometry>
        </mxCell>
        <mxCell id="k0sqkgPHbtRCCj4TaCLR-16" value="[joke_ID ref]" style="shape=partialRectangle;connectable=0;fillColor=none;top=0;left=0;bottom=0;right=0;align=left;spacingLeft=6;overflow=hidden;fontFamily=Permanent Marker;fontSource=https%3A%2F%2Ffonts.googleapis.com%2Fcss%3Ffamily%3DPermanent%2BMarker;" vertex="1" parent="k0sqkgPHbtRCCj4TaCLR-14">
          <mxGeometry x="100" width="140" height="30" as="geometry">
            <mxRectangle width="140" height="30" as="alternateBounds" />
          </mxGeometry>
        </mxCell>
        <mxCell id="k0sqkgPHbtRCCj4TaCLR-42" style="shape=partialRectangle;collapsible=0;dropTarget=0;pointerEvents=0;fillColor=none;top=0;left=0;bottom=0;right=0;points=[[0,0.5],[1,0.5]];portConstraint=eastwest;fontFamily=Permanent Marker;fontSource=https%3A%2F%2Ffonts.googleapis.com%2Fcss%3Ffamily%3DPermanent%2BMarker;" vertex="1" parent="k0sqkgPHbtRCCj4TaCLR-10">
          <mxGeometry y="150" width="240" height="30" as="geometry" />
        </mxCell>
        <mxCell id="k0sqkgPHbtRCCj4TaCLR-43" value="Liked Jokes" style="shape=partialRectangle;connectable=0;fillColor=none;top=0;left=0;bottom=0;right=0;editable=1;overflow=hidden;fontFamily=Permanent Marker;fontSource=https%3A%2F%2Ffonts.googleapis.com%2Fcss%3Ffamily%3DPermanent%2BMarker;" vertex="1" parent="k0sqkgPHbtRCCj4TaCLR-42">
          <mxGeometry width="100" height="30" as="geometry">
            <mxRectangle width="100" height="30" as="alternateBounds" />
          </mxGeometry>
        </mxCell>
        <mxCell id="k0sqkgPHbtRCCj4TaCLR-44" value="[joke_ID ref]" style="shape=partialRectangle;connectable=0;fillColor=none;top=0;left=0;bottom=0;right=0;align=left;spacingLeft=6;overflow=hidden;fontFamily=Permanent Marker;fontSource=https%3A%2F%2Ffonts.googleapis.com%2Fcss%3Ffamily%3DPermanent%2BMarker;" vertex="1" parent="k0sqkgPHbtRCCj4TaCLR-42">
          <mxGeometry x="100" width="140" height="30" as="geometry">
            <mxRectangle width="140" height="30" as="alternateBounds" />
          </mxGeometry>
        </mxCell>
        <mxCell id="k0sqkgPHbtRCCj4TaCLR-39" style="shape=partialRectangle;collapsible=0;dropTarget=0;pointerEvents=0;fillColor=none;top=0;left=0;bottom=0;right=0;points=[[0,0.5],[1,0.5]];portConstraint=eastwest;fontFamily=Permanent Marker;fontSource=https%3A%2F%2Ffonts.googleapis.com%2Fcss%3Ffamily%3DPermanent%2BMarker;" vertex="1" parent="k0sqkgPHbtRCCj4TaCLR-10">
          <mxGeometry y="180" width="240" height="30" as="geometry" />
        </mxCell>
        <mxCell id="k0sqkgPHbtRCCj4TaCLR-40" value="Flagged jokes" style="shape=partialRectangle;connectable=0;fillColor=none;top=0;left=0;bottom=0;right=0;editable=1;overflow=hidden;fontFamily=Permanent Marker;fontSource=https%3A%2F%2Ffonts.googleapis.com%2Fcss%3Ffamily%3DPermanent%2BMarker;" vertex="1" parent="k0sqkgPHbtRCCj4TaCLR-39">
          <mxGeometry width="100" height="30" as="geometry">
            <mxRectangle width="100" height="30" as="alternateBounds" />
          </mxGeometry>
        </mxCell>
        <mxCell id="k0sqkgPHbtRCCj4TaCLR-41" value="[joke_ID ref]" style="shape=partialRectangle;connectable=0;fillColor=none;top=0;left=0;bottom=0;right=0;align=left;spacingLeft=6;overflow=hidden;fontFamily=Permanent Marker;fontSource=https%3A%2F%2Ffonts.googleapis.com%2Fcss%3Ffamily%3DPermanent%2BMarker;" vertex="1" parent="k0sqkgPHbtRCCj4TaCLR-39">
          <mxGeometry x="100" width="140" height="30" as="geometry">
            <mxRectangle width="140" height="30" as="alternateBounds" />
          </mxGeometry>
        </mxCell>
        <mxCell id="k0sqkgPHbtRCCj4TaCLR-45" value="Jokes" style="shape=table;startSize=30;container=1;collapsible=1;childLayout=tableLayout;fixedRows=1;rowLines=0;fontStyle=1;align=center;resizeLast=1;rounded=1;sketch=1;fontFamily=Permanent Marker;fontSource=https%3A%2F%2Ffonts.googleapis.com%2Fcss%3Ffamily%3DPermanent%2BMarker;" vertex="1" parent="1">
          <mxGeometry x="455" y="130" width="320" height="300" as="geometry" />
        </mxCell>
        <mxCell id="k0sqkgPHbtRCCj4TaCLR-46" value="" style="shape=partialRectangle;collapsible=0;dropTarget=0;pointerEvents=0;fillColor=none;top=0;left=0;bottom=1;right=0;points=[[0,0.5],[1,0.5]];portConstraint=eastwest;fontFamily=Permanent Marker;fontSource=https%3A%2F%2Ffonts.googleapis.com%2Fcss%3Ffamily%3DPermanent%2BMarker;" vertex="1" parent="k0sqkgPHbtRCCj4TaCLR-45">
          <mxGeometry y="30" width="320" height="30" as="geometry" />
        </mxCell>
        <mxCell id="k0sqkgPHbtRCCj4TaCLR-47" value="ID" style="shape=partialRectangle;connectable=0;fillColor=none;top=0;left=0;bottom=0;right=0;fontStyle=1;overflow=hidden;fontFamily=Permanent Marker;fontSource=https%3A%2F%2Ffonts.googleapis.com%2Fcss%3Ffamily%3DPermanent%2BMarker;" vertex="1" parent="k0sqkgPHbtRCCj4TaCLR-46">
          <mxGeometry width="100" height="30" as="geometry">
            <mxRectangle width="100" height="30" as="alternateBounds" />
          </mxGeometry>
        </mxCell>
        <mxCell id="k0sqkgPHbtRCCj4TaCLR-48" value="UniqueID" style="shape=partialRectangle;connectable=0;fillColor=none;top=0;left=0;bottom=0;right=0;align=left;spacingLeft=6;fontStyle=5;overflow=hidden;fontFamily=Permanent Marker;fontSource=https%3A%2F%2Ffonts.googleapis.com%2Fcss%3Ffamily%3DPermanent%2BMarker;" vertex="1" parent="k0sqkgPHbtRCCj4TaCLR-46">
          <mxGeometry x="100" width="220" height="30" as="geometry">
            <mxRectangle width="220" height="30" as="alternateBounds" />
          </mxGeometry>
        </mxCell>
        <mxCell id="k0sqkgPHbtRCCj4TaCLR-49" value="" style="shape=partialRectangle;collapsible=0;dropTarget=0;pointerEvents=0;fillColor=none;top=0;left=0;bottom=0;right=0;points=[[0,0.5],[1,0.5]];portConstraint=eastwest;fontFamily=Permanent Marker;fontSource=https%3A%2F%2Ffonts.googleapis.com%2Fcss%3Ffamily%3DPermanent%2BMarker;" vertex="1" parent="k0sqkgPHbtRCCj4TaCLR-45">
          <mxGeometry y="60" width="320" height="30" as="geometry" />
        </mxCell>
        <mxCell id="k0sqkgPHbtRCCj4TaCLR-50" value="setup" style="shape=partialRectangle;connectable=0;fillColor=none;top=0;left=0;bottom=0;right=0;editable=1;overflow=hidden;fontFamily=Permanent Marker;fontSource=https%3A%2F%2Ffonts.googleapis.com%2Fcss%3Ffamily%3DPermanent%2BMarker;" vertex="1" parent="k0sqkgPHbtRCCj4TaCLR-49">
          <mxGeometry width="100" height="30" as="geometry">
            <mxRectangle width="100" height="30" as="alternateBounds" />
          </mxGeometry>
        </mxCell>
        <mxCell id="k0sqkgPHbtRCCj4TaCLR-51" value="string" style="shape=partialRectangle;connectable=0;fillColor=none;top=0;left=0;bottom=0;right=0;align=left;spacingLeft=6;overflow=hidden;fontFamily=Permanent Marker;fontSource=https%3A%2F%2Ffonts.googleapis.com%2Fcss%3Ffamily%3DPermanent%2BMarker;" vertex="1" parent="k0sqkgPHbtRCCj4TaCLR-49">
          <mxGeometry x="100" width="220" height="30" as="geometry">
            <mxRectangle width="220" height="30" as="alternateBounds" />
          </mxGeometry>
        </mxCell>
        <mxCell id="k0sqkgPHbtRCCj4TaCLR-52" value="" style="shape=partialRectangle;collapsible=0;dropTarget=0;pointerEvents=0;fillColor=none;top=0;left=0;bottom=0;right=0;points=[[0,0.5],[1,0.5]];portConstraint=eastwest;fontFamily=Permanent Marker;fontSource=https%3A%2F%2Ffonts.googleapis.com%2Fcss%3Ffamily%3DPermanent%2BMarker;" vertex="1" parent="k0sqkgPHbtRCCj4TaCLR-45">
          <mxGeometry y="90" width="320" height="30" as="geometry" />
        </mxCell>
        <mxCell id="k0sqkgPHbtRCCj4TaCLR-53" value="Punchline" style="shape=partialRectangle;connectable=0;fillColor=none;top=0;left=0;bottom=0;right=0;editable=1;overflow=hidden;fontFamily=Permanent Marker;fontSource=https%3A%2F%2Ffonts.googleapis.com%2Fcss%3Ffamily%3DPermanent%2BMarker;" vertex="1" parent="k0sqkgPHbtRCCj4TaCLR-52">
          <mxGeometry width="100" height="30" as="geometry">
            <mxRectangle width="100" height="30" as="alternateBounds" />
          </mxGeometry>
        </mxCell>
        <mxCell id="k0sqkgPHbtRCCj4TaCLR-54" value="string" style="shape=partialRectangle;connectable=0;fillColor=none;top=0;left=0;bottom=0;right=0;align=left;spacingLeft=6;overflow=hidden;fontFamily=Permanent Marker;fontSource=https%3A%2F%2Ffonts.googleapis.com%2Fcss%3Ffamily%3DPermanent%2BMarker;" vertex="1" parent="k0sqkgPHbtRCCj4TaCLR-52">
          <mxGeometry x="100" width="220" height="30" as="geometry">
            <mxRectangle width="220" height="30" as="alternateBounds" />
          </mxGeometry>
        </mxCell>
        <mxCell id="k0sqkgPHbtRCCj4TaCLR-55" value="" style="shape=partialRectangle;collapsible=0;dropTarget=0;pointerEvents=0;fillColor=none;top=0;left=0;bottom=0;right=0;points=[[0,0.5],[1,0.5]];portConstraint=eastwest;fontFamily=Permanent Marker;fontSource=https%3A%2F%2Ffonts.googleapis.com%2Fcss%3Ffamily%3DPermanent%2BMarker;" vertex="1" parent="k0sqkgPHbtRCCj4TaCLR-45">
          <mxGeometry y="120" width="320" height="30" as="geometry" />
        </mxCell>
        <mxCell id="k0sqkgPHbtRCCj4TaCLR-56" value="Likes" style="shape=partialRectangle;connectable=0;fillColor=none;top=0;left=0;bottom=0;right=0;editable=1;overflow=hidden;fontFamily=Permanent Marker;fontSource=https%3A%2F%2Ffonts.googleapis.com%2Fcss%3Ffamily%3DPermanent%2BMarker;" vertex="1" parent="k0sqkgPHbtRCCj4TaCLR-55">
          <mxGeometry width="100" height="30" as="geometry">
            <mxRectangle width="100" height="30" as="alternateBounds" />
          </mxGeometry>
        </mxCell>
        <mxCell id="k0sqkgPHbtRCCj4TaCLR-57" value="Num" style="shape=partialRectangle;connectable=0;fillColor=none;top=0;left=0;bottom=0;right=0;align=left;spacingLeft=6;overflow=hidden;fontFamily=Permanent Marker;fontSource=https%3A%2F%2Ffonts.googleapis.com%2Fcss%3Ffamily%3DPermanent%2BMarker;" vertex="1" parent="k0sqkgPHbtRCCj4TaCLR-55">
          <mxGeometry x="100" width="220" height="30" as="geometry">
            <mxRectangle width="220" height="30" as="alternateBounds" />
          </mxGeometry>
        </mxCell>
        <mxCell id="k0sqkgPHbtRCCj4TaCLR-58" style="shape=partialRectangle;collapsible=0;dropTarget=0;pointerEvents=0;fillColor=none;top=0;left=0;bottom=0;right=0;points=[[0,0.5],[1,0.5]];portConstraint=eastwest;fontFamily=Permanent Marker;fontSource=https%3A%2F%2Ffonts.googleapis.com%2Fcss%3Ffamily%3DPermanent%2BMarker;" vertex="1" parent="k0sqkgPHbtRCCj4TaCLR-45">
          <mxGeometry y="150" width="320" height="30" as="geometry" />
        </mxCell>
        <mxCell id="k0sqkgPHbtRCCj4TaCLR-59" value="Author" style="shape=partialRectangle;connectable=0;fillColor=none;top=0;left=0;bottom=0;right=0;editable=1;overflow=hidden;fontFamily=Permanent Marker;fontSource=https%3A%2F%2Ffonts.googleapis.com%2Fcss%3Ffamily%3DPermanent%2BMarker;" vertex="1" parent="k0sqkgPHbtRCCj4TaCLR-58">
          <mxGeometry width="100" height="30" as="geometry">
            <mxRectangle width="100" height="30" as="alternateBounds" />
          </mxGeometry>
        </mxCell>
        <mxCell id="k0sqkgPHbtRCCj4TaCLR-60" value="[user_ID ref]" style="shape=partialRectangle;connectable=0;fillColor=none;top=0;left=0;bottom=0;right=0;align=left;spacingLeft=6;overflow=hidden;fontFamily=Permanent Marker;fontSource=https%3A%2F%2Ffonts.googleapis.com%2Fcss%3Ffamily%3DPermanent%2BMarker;" vertex="1" parent="k0sqkgPHbtRCCj4TaCLR-58">
          <mxGeometry x="100" width="220" height="30" as="geometry">
            <mxRectangle width="220" height="30" as="alternateBounds" />
          </mxGeometry>
        </mxCell>
        <mxCell id="k0sqkgPHbtRCCj4TaCLR-61" style="shape=partialRectangle;collapsible=0;dropTarget=0;pointerEvents=0;fillColor=none;top=0;left=0;bottom=0;right=0;points=[[0,0.5],[1,0.5]];portConstraint=eastwest;fontFamily=Permanent Marker;fontSource=https%3A%2F%2Ffonts.googleapis.com%2Fcss%3Ffamily%3DPermanent%2BMarker;" vertex="1" parent="k0sqkgPHbtRCCj4TaCLR-45">
          <mxGeometry y="180" width="320" height="90" as="geometry" />
        </mxCell>
        <mxCell id="k0sqkgPHbtRCCj4TaCLR-62" value="seen by" style="shape=partialRectangle;connectable=0;fillColor=none;top=0;left=0;bottom=0;right=0;editable=1;overflow=hidden;fontFamily=Permanent Marker;fontSource=https%3A%2F%2Ffonts.googleapis.com%2Fcss%3Ffamily%3DPermanent%2BMarker;" vertex="1" parent="k0sqkgPHbtRCCj4TaCLR-61">
          <mxGeometry width="100" height="90" as="geometry">
            <mxRectangle width="100" height="90" as="alternateBounds" />
          </mxGeometry>
        </mxCell>
        <mxCell id="k0sqkgPHbtRCCj4TaCLR-63" value=" [ &#xa;    { user_ID1 ref : boolean, },&#xa;    { user_ID2 ref : Boolean }&#xa; ]" style="shape=partialRectangle;connectable=0;fillColor=none;top=0;left=0;bottom=0;right=0;align=left;spacingLeft=6;overflow=hidden;fontFamily=Permanent Marker;fontSource=https%3A%2F%2Ffonts.googleapis.com%2Fcss%3Ffamily%3DPermanent%2BMarker;whiteSpace=wrap;" vertex="1" parent="k0sqkgPHbtRCCj4TaCLR-61">
          <mxGeometry x="100" width="220" height="90" as="geometry">
            <mxRectangle width="220" height="90" as="alternateBounds" />
          </mxGeometry>
        </mxCell>
        <mxCell id="k0sqkgPHbtRCCj4TaCLR-64" style="shape=partialRectangle;collapsible=0;dropTarget=0;pointerEvents=0;fillColor=none;top=0;left=0;bottom=0;right=0;points=[[0,0.5],[1,0.5]];portConstraint=eastwest;fontFamily=Permanent Marker;fontSource=https%3A%2F%2Ffonts.googleapis.com%2Fcss%3Ffamily%3DPermanent%2BMarker;" vertex="1" parent="k0sqkgPHbtRCCj4TaCLR-45">
          <mxGeometry y="270" width="320" height="30" as="geometry" />
        </mxCell>
        <mxCell id="k0sqkgPHbtRCCj4TaCLR-65" value="Flagged" style="shape=partialRectangle;connectable=0;fillColor=none;top=0;left=0;bottom=0;right=0;editable=1;overflow=hidden;fontFamily=Permanent Marker;fontSource=https%3A%2F%2Ffonts.googleapis.com%2Fcss%3Ffamily%3DPermanent%2BMarker;" vertex="1" parent="k0sqkgPHbtRCCj4TaCLR-64">
          <mxGeometry width="100" height="30" as="geometry">
            <mxRectangle width="100" height="30" as="alternateBounds" />
          </mxGeometry>
        </mxCell>
        <mxCell id="k0sqkgPHbtRCCj4TaCLR-66" value="boolean" style="shape=partialRectangle;connectable=0;fillColor=none;top=0;left=0;bottom=0;right=0;align=left;spacingLeft=6;overflow=hidden;fontFamily=Permanent Marker;fontSource=https%3A%2F%2Ffonts.googleapis.com%2Fcss%3Ffamily%3DPermanent%2BMarker;whiteSpace=wrap;" vertex="1" parent="k0sqkgPHbtRCCj4TaCLR-64">
          <mxGeometry x="100" width="220" height="30" as="geometry">
            <mxRectangle width="220" height="30" as="alternateBounds" />
          </mxGeometry>
        </mxCell>
      </root>
    </mxGraphModel>
  </diagram>
</mxfile>
